<svg width="64" height="64" viewBox="0 0 64 64" fill="none" xmlns="http://www.w3.org/2000/svg">
  <defs>
    <linearGradient id="bg" x1="0" y1="0" x2="64" y2="64" gradientUnits="userSpaceOnUse">
      <stop offset="0%" stop-color="#10b981"/>
      <stop offset="100%" stop-color="#0d9488"/>
    </linearGradient>
    <linearGradient id="fl" x1="38" y1="12" x2="46" y2="30" gradientUnits="userSpaceOnUse">
      <stop offset="0%" stop-color="#fbbf24"/>
      <stop offset="100%" stop-color="#f97316"/>
    </linearGradient>
  </defs>
  <rect x="2" y="2" width="60" height="60" rx="14" fill="url(#bg)"/>
  <rect x="2" y="2" width="60" height="60" rx="14" fill="white" opacity="0.08"/>
  <rect x="2" y="2" width="60" height="60" rx="14" fill="none" stroke="white" stroke-width="1" opacity="0.15"/>
  <path d="M20 48V16h12c3.5 0 6.5 1.2 8.5 3.2S43 23.5 43 27s-1 5.8-3 7.8-5 3.2-8.5 3.2H26v10h-6zM26 32.5h6c1.8 0 3.2-.6 4.2-1.6S38 28.8 38 27s-.6-3.2-1.8-4.2S33.8 21.5 32 21.5h-6V32.5z" fill="white"/>
  <path d="M44 8c0 0-3 4-3 7.5c0 2.5 1.5 4.5 3 4.5s3-2 3-4.5C47 12 44 8 44 8z" fill="url(#fl)" opacity="0.9"/>
</svg>
